<svg width="12" height="13" viewBox="0 0 12 13" fill="none" xmlns="http://www.w3.org/2000/svg">
<path d="M4.38462 10.6641C4.28205 10.6638 4.18064 10.6418 4.08669 10.5996C3.99274 10.5574 3.90827 10.4959 3.83852 10.4189L0.20278 6.45642C0.0668714 6.30803 -0.00593442 6.11041 0.000378846 5.90703C0.00350486 5.80632 0.0259611 5.70723 0.0664653 5.61542C0.10697 5.52361 0.164728 5.44087 0.236444 5.37192C0.30816 5.30298 0.392429 5.24918 0.484439 5.2136C0.576448 5.17802 0.674397 5.16136 0.772693 5.16456C0.97121 5.17103 1.15909 5.25802 1.295 5.40641L4.37714 8.77104L10.6686 1.71988C10.7325 1.63843 10.8119 1.57121 10.902 1.52235C10.9921 1.47349 11.0911 1.44402 11.1927 1.43575C11.2944 1.42749 11.3966 1.4406 11.4931 1.47428C11.5896 1.50797 11.6784 1.56151 11.754 1.63163C11.8296 1.70174 11.8904 1.78695 11.9327 1.88202C11.975 1.97708 11.9978 2.08 11.9999 2.18445C12.0019 2.28889 11.9831 2.39266 11.9445 2.48939C11.906 2.58611 11.8486 2.67374 11.7758 2.7469L4.93821 10.4112C4.86912 10.4896 4.78494 10.5526 4.69096 10.5961C4.59698 10.6397 4.49523 10.6628 4.39211 10.6641H4.38462Z" fill="white"/>
</svg>
